<?xml version="1.0" encoding="utf-8"?>
<!DOCTYPE svg PUBLIC "-//W3C//DTD SVG 1.0//EN" "http://www.w3.org/TR/2001/REC-SVG-20010904/DTD/svg10.dtd">
<svg version="1.0" xmlns="http://www.w3.org/2000/svg" width="802px" height="311px" viewBox="0 0 802 311" preserveAspectRatio="xMidYMid meet">
 <g fill="#e45661">
  <path d="M38.7 244.3 c-0.4 -0.3 -0.7 -44.9 -0.7 -99 l0 -98.3 19.5 0 19.5 0 0 99 0 99 -18.8 0 c-10.4 0 -19.2 -0.3 -19.5 -0.7z"/>
  <path d="M104 177.5 l0 -67.5 19.5 0 19.5 0 0 65.3 c0 35.8 -0.3 66.2 -0.6 67.5 -0.6 2.2 -0.8 2.2 -19.5 2.2 l-18.9 0 0 -67.5z"/>
  <path d="M164.8 238.3 c-0.5 -9.2 -0.5 -116.5 0 -123 l0.4 -5.3 19.4 0 19.4 0 0 4.9 c0 2.8 0.4 5.2 0.9 5.5 0.5 0.3 2.6 -0.8 4.7 -2.5 15.5 -12.3 37.9 -14.2 57.2 -4.7 8.7 4.3 17 12.5 21 20.8 6.1 12.5 6.2 13.8 6.2 64.7 l0 46.3 -18.4 0 c-17.8 0 -18.4 -0.1 -18.9 -2.1 -0.3 -1.2 -0.6 -19.7 -0.6 -41.3 -0.1 -32.5 -0.3 -40 -1.6 -44.4 -7 -23.6 -44.3 -22.2 -49.4 1.8 -0.7 3.2 -1.1 19.2 -1.1 42.4 0 20.6 -0.3 38.8 -0.6 40.5 l-0.6 3.1 -18.8 0 -18.8 0 -0.4 -6.7z"/>
  <path d="M315.6 239.2 c-1 -10.1 -0.7 -192 0.4 -192.4 0.5 -0.1 9.5 -0.2 20 0 l19 0.3 0 58.9 c0 36.8 0.4 59 1 59 0.8 0 13.3 -15.3 24.2 -29.7 1.5 -1.9 6.7 -8.4 11.4 -14.4 l8.7 -10.9 20.6 0 c17.3 0.1 20.3 0.3 18.9 1.4 -1 0.7 -1.8 1.6 -1.8 2 0 0.3 -3.9 5.6 -8.7 11.7 -31 39.4 -39.3 50.2 -39.3 51 0 0.5 10.7 15.2 23.8 32.7 13 17.6 24.3 32.8 25 34 l1.2 2.2 -19.8 0 c-19.3 0 -19.9 -0.1 -21.9 -2.2 -1.9 -2.1 -10.8 -13.8 -34.3 -45.5 -4.1 -5.6 -7.8 -9.9 -8.2 -9.7 -0.5 0.3 -0.8 13.3 -0.8 29 l0 28.5 -19.4 -0.1 -19.4 -0.1 -0.6 -5.7z"/>
  <path d="M118.4 90.1 c-12.5 -3 -20.8 -16.4 -17.5 -28.4 1.7 -5.8 7.2 -12.4 12.5 -14.8 4.9 -2.2 16.2 -2.5 20.9 -0.6 8.9 3.8 13.2 10.6 13.2 21.2 0 5.8 -0.5 7.8 -2.7 11.6 -5.2 8.9 -16.1 13.4 -26.4 11z"/>
 </g>
 <g fill="#357f45">
  <path d="M457.7 146 l0.1 -98.1 38.9 -0.1 c33.6 0 39.8 0.2 46.3 1.7 13.4 3.1 24.1 9.7 32 19.6 10.2 12.9 12.5 36.3 5 51.6 -3.5 7 -11.9 16.1 -17.4 18.7 -2 1 -3.5 2.3 -3.3 2.9 0.2 0.6 3.9 2.9 8.2 5.1 9.4 4.7 14.8 9.9 19.1 18.1 4 7.5 5.4 14.2 5.4 25.2 0 21.9 -9 37.3 -27 46.1 -13.4 6.6 -19.2 7.2 -66.9 7.2 l-40.6 0 0.2 -98z m67 65.9 c15.8 -1.5 24.4 -7.1 27.4 -17.8 3.9 -13.4 -0.8 -24.4 -12.9 -30.3 l-6.6 -3.3 -19.1 0 -19 0 -0.3 25.4 c-0.2 19.7 0.1 25.6 1 26.3 1.7 1 17.6 0.9 29.5 -0.3z m5.8 -84.1 c5.5 -1.8 14 -10.2 15.4 -15.3 4.2 -15.5 -3.8 -29.5 -19.1 -33.3 -2.6 -0.7 -11 -1.2 -18.7 -1.2 l-14.1 0 0 25.3 c0 14 0.3 25.7 0.8 26.1 1.1 1.3 31.2 -0.1 35.7 -1.6z"/>
  <path d="M611.8 158.3 c-0.1 -47.2 -0.2 -91.4 -0.2 -98.1 l-0.1 -12.4 38.9 0.2 c49 0.1 53.2 0.7 72.8 10.6 17.1 8.6 29.8 21.1 38.5 37.9 5.8 11.4 8.8 21.9 10.9 38.5 1.7 13.8 1.7 15.1 0 27.5 -2.9 22.3 -10 38.2 -23.1 52.3 -8.4 9 -15.2 14.2 -25.4 19.3 -17.7 8.8 -25.7 9.9 -74.3 9.9 l-37.8 0 -0.2 -85.7z m74.7 52.1 c19.8 -3.2 34.3 -14 42.5 -31.5 4.7 -10.2 6.1 -17.1 6.2 -30.9 0.2 -25.7 -8.2 -44 -26.2 -57.3 -6.6 -5 -17 -9.3 -25.3 -10.7 -3.4 -0.5 -12.6 -1.2 -20.3 -1.4 l-14.2 -0.4 -0.6 3 c-0.8 3.8 -0.8 128.2 0 130.2 0.5 1.3 2.7 1.4 14.7 1 7.8 -0.3 18.3 -1.2 23.2 -2z"/>
 </g>
</svg>